Coordinates
version=1
nRows=60
nColumns=12
inDegrees=yes

Units are S.I. units (second, meters, Newtons, ...)
Angles are in degrees

endheader
time	SC_y	SC_z	SC_x	AC_y	AC_z	AC_x	GH_y	GH_z	GH_yy	EL_x	PS_y
       0.0              -20.12          33.54          31.39          36.37           3.24        -0.3121         -72.24         -13.14          42.14          123.3          98.49
  0.006891              -20.12          33.54          31.39          36.37          3.239        -0.3092         -72.23         -13.14          42.14          123.3          98.48
   0.01378              -20.13          33.53          31.39          36.37          3.237        -0.3061         -72.21         -13.14          42.14          123.3          98.47
   0.02067              -20.13          33.53          31.39          36.37          3.236        -0.3029          -72.2         -13.14          42.14          123.3          98.46
   0.02756              -20.14          33.52          31.38          36.38          3.234        -0.2994         -72.18         -13.14          42.14          123.3          98.45
   0.03445              -20.14          33.52          31.38          36.38          3.232        -0.2957         -72.16         -13.14          42.14          123.3          98.44
   0.04134              -20.15          33.51          31.38          36.38           3.23        -0.2917         -72.14         -13.14          42.15          123.3          98.43
   0.04823              -20.16          33.51          31.37          36.38          3.228        -0.2875         -72.12         -13.14          42.15          123.3          98.42
   0.05513              -20.17           33.5          31.37          36.38          3.226        -0.2829          -72.1         -13.14          42.15          123.3          98.41
   0.06202              -20.17           33.5          31.37          36.39          3.223        -0.2781         -72.08         -13.14          42.15          123.3           98.4
   0.06891              -20.18          33.49          31.36          36.39          3.221        -0.2728         -72.05         -13.14          42.15          123.3          98.38
    0.0758              -20.19          33.48          31.36          36.39          3.218        -0.2672         -72.03         -13.14          42.15          123.3          98.37
   0.08269               -20.2          33.47          31.35          36.39          3.215        -0.2612          -72.0         -13.14          42.15          123.3          98.35
   0.08958              -20.21          33.46          31.35           36.4          3.212        -0.2546         -71.97         -13.14          42.15          123.3          98.34
   0.09647              -20.22          33.45          31.34           36.4          3.208        -0.2475         -71.93         -13.14          42.15          123.3          98.32
    0.1034              -20.24          33.44          31.34          36.41          3.205        -0.2398          -71.9         -13.14          42.16          123.3           98.3
    0.1103              -20.25          33.43          31.33          36.41          3.201        -0.2315         -71.86         -13.14          42.16          123.3          98.28
    0.1171              -20.26          33.42          31.32          36.41          3.196        -0.2224         -71.81         -13.14          42.16          123.3          98.25
     0.124              -20.28          33.41          31.31          36.42          3.191        -0.2125         -71.76         -13.14          42.16          123.3          98.23
    0.1309               -20.3          33.39          31.31          36.42          3.186        -0.2016         -71.71         -13.14          42.16          123.3           98.2
    0.1378              -20.32          33.38           31.3          36.43           3.18        -0.1896         -71.66         -13.14          42.16          123.3          98.17
    0.1447              -20.34          33.36          31.29          36.44          3.174        -0.1765         -71.59         -13.14          42.17          123.3          98.13
    0.1516              -20.36          33.34          31.27          36.44          3.166         -0.162         -71.52         -13.14          42.17          123.3           98.1
    0.1585              -20.39          33.32          31.26          36.45          3.159        -0.1459         -71.45         -13.15          42.17          123.3          98.06
    0.1654              -20.42          33.29          31.25          36.46           3.15         -0.128         -71.36         -13.15          42.18          123.3          98.01
    0.1723              -20.45          33.27          31.23          36.47           3.14         -0.108         -71.26         -13.15          42.18          123.3          97.96
    0.1792              -20.49          33.24          31.21          36.48          3.129       -0.08569         -71.16         -13.15          42.18          123.3           97.9
     0.186              -20.53           33.2          31.19          36.49          3.117       -0.06054         -71.04         -13.15          42.19          123.3          97.83
    0.1929              -20.58          33.16          31.17          36.51          3.103       -0.03213          -70.9         -13.15          42.19          123.3          97.76
    0.1998              -20.63          33.12          31.15          36.52          3.087      0.0001388         -70.74         -13.16           42.2          123.3          97.68
    0.2067              -20.69          33.07          31.12          36.54          3.069        0.03696         -70.57         -13.16          42.21          123.3          97.58
    0.2136              -20.76          33.01          31.08          36.56          3.048        0.07922         -70.37         -13.16          42.22          123.3          97.47
    0.2205              -20.84          32.95          31.04          36.59          3.024          0.128         -70.13         -13.16          42.22          123.3          97.35
    0.2274              -20.93          32.87           31.0          36.61          2.996         0.1847         -69.86         -13.17          42.24          123.3           97.2
    0.2343              -21.04          32.78          30.95          36.65          2.964          0.251         -69.54         -13.17          42.25          123.3          97.03
    0.2412              -21.17          32.67          30.88          36.68          2.925         0.3292         -69.17         -13.18          42.26          123.3          96.83
    0.2481              -21.32          32.55          30.81          36.73           2.88         0.4222         -68.72         -13.18          42.28          123.3          96.59
     0.255               -21.5           32.4          30.72          36.79          2.825         0.5336         -68.19         -13.19           42.3          123.3           96.3
    0.2618              -21.72          32.22          30.61          36.85          2.759         0.6683         -67.54          -13.2          42.33          123.4          95.95
    0.2687              -21.99          31.99          30.48          36.93          2.678         0.8329         -66.75         -13.21          42.36          123.4          95.52
    0.2756              -22.32          31.72          30.32          37.03          2.579          1.036         -65.78         -13.22           42.4          123.4           95.0
    0.2825              -22.74          31.38          30.12          37.16          2.454          1.289         -64.56         -13.24          42.45          123.4          94.34
    0.2894              -23.26          30.94          29.86          37.31          2.298          1.609         -63.03         -13.26          42.51          123.4          93.52
    0.2963              -23.92           30.4          29.54          37.51          2.099          2.014         -61.08         -13.28          42.58          123.4          92.47
    0.3032              -24.77          29.69          29.13          37.77          1.844          2.534         -58.59         -13.32          42.68          123.5          91.13
    0.3101              -25.86          28.79           28.6          38.09          1.517            3.2         -55.39         -13.36          42.81          123.5           89.4
     0.317              -27.25          27.64          27.92          38.51            1.1          4.051         -51.31         -13.42          42.97          123.6           87.2
    0.3239               -29.0          26.19          27.07          39.04         0.5745          5.122         -46.18         -13.48          43.17          123.6          84.43
    0.3308              -31.13          24.43          26.03          39.68        -0.0654          6.426         -39.92         -13.57          43.42          123.7          81.06
    0.3376               -33.6          22.38          24.82          40.42        -0.8071          7.938         -32.67         -13.67          43.71          123.8          77.15
    0.3445              -36.28          20.17          23.52          41.23          -1.61          9.575         -24.81         -13.77          44.02          123.9          72.92
    0.3514              -38.95          17.96          22.22          42.03         -2.413          11.21         -16.96         -13.88          44.33          124.0          68.69
    0.3583              -41.43          15.91          21.01          42.77         -3.155          12.72         -9.705         -13.97          44.61          124.1          64.78
    0.3652              -43.56          14.15          19.97          43.41         -3.795          14.03         -3.447         -14.06          44.86          124.2           61.4
    0.3721              -45.31           12.7          19.12          43.94          -4.32           15.1          1.687         -14.13          45.07          124.2          58.64
     0.379               -46.7          11.55          18.44          44.36         -4.738          15.95          5.771         -14.18          45.23          124.3          56.43
    0.3859              -47.79          10.65          17.91          44.68         -5.064          16.62          8.968         -14.22          45.35          124.3          54.71
    0.3928              -48.64          9.944           17.5          44.94         -5.319          17.14          11.46         -14.26          45.45          124.4          53.37
    0.3997               -49.3          9.396          17.18          45.14         -5.518          17.54          13.41         -14.28          45.53          124.4          52.32
    0.4066              -49.82          8.964          16.92          45.29         -5.675          17.86          14.94          -14.3          45.59          124.4          51.49
